<svg xmlns="http://www.w3.org/2000/svg" xmlns:xlink="http://www.w3.org/1999/xlink" width="500" zoomAndPan="magnify" viewBox="0 0 375 374.999991" height="500" preserveAspectRatio="xMidYMid meet" version="1.0"><defs><g/></defs><g fill="#ccd7f7" fill-opacity="1"><g transform="translate(74.014326, 197.051973)"><g><path d="M 21.75 -32.484375 L 31.5625 -32.484375 L 20.921875 0 L 10.59375 0 L 0 -32.484375 L 9.859375 -32.484375 L 14.28125 -16.015625 C 15.195312 -12.359375 15.703125 -9.8125 15.796875 -8.375 C 15.898438 -9.414062 16.109375 -10.710938 16.421875 -12.265625 C 16.734375 -13.816406 17.003906 -15.035156 17.234375 -15.921875 Z M 21.75 -32.484375 "/></g></g></g><g fill="#ccd7f7" fill-opacity="1"><g transform="translate(109.626544, 197.051973)"><g><path d="M 23.4375 0 L 21.84375 -6.09375 L 11.28125 -6.09375 L 9.640625 0 L 0 0 L 10.59375 -32.609375 L 22.3125 -32.609375 L 33.03125 0 Z M 20.015625 -13.28125 L 18.625 -18.625 C 18.289062 -19.800781 17.890625 -21.328125 17.421875 -23.203125 C 16.960938 -25.085938 16.65625 -26.441406 16.5 -27.265625 C 16.375 -26.503906 16.113281 -25.253906 15.71875 -23.515625 C 15.320312 -21.785156 14.453125 -18.375 13.109375 -13.28125 Z M 20.015625 -13.28125 "/></g></g></g><g fill="#ccd7f7" fill-opacity="1"><g transform="translate(146.704722, 197.051973)"><g><path d="M 12.28125 -11.8125 L 12.28125 0 L 3.515625 0 L 3.515625 -32.484375 L 14.15625 -32.484375 C 22.976562 -32.484375 27.390625 -29.285156 27.390625 -22.890625 C 27.390625 -19.117188 25.554688 -16.207031 21.890625 -14.15625 L 31.34375 0 L 21.390625 0 L 14.5 -11.8125 Z M 12.28125 -18.421875 L 13.9375 -18.421875 C 17 -18.421875 18.53125 -19.773438 18.53125 -22.484375 C 18.53125 -24.722656 17.023438 -25.84375 14.015625 -25.84375 L 12.28125 -25.84375 Z M 12.28125 -18.421875 "/></g></g></g><g fill="#ccd7f7" fill-opacity="1"><g transform="translate(181.53953, 197.051973)"><g><path d="M 24.75 -9.859375 C 24.75 -7.847656 24.238281 -6.0625 23.21875 -4.5 C 22.195312 -2.9375 20.722656 -1.722656 18.796875 -0.859375 C 16.867188 0.00390625 14.609375 0.4375 12.015625 0.4375 C 9.859375 0.4375 8.046875 0.285156 6.578125 -0.015625 C 5.109375 -0.316406 3.582031 -0.84375 2 -1.59375 L 2 -9.421875 C 3.675781 -8.554688 5.414062 -7.882812 7.21875 -7.40625 C 9.03125 -6.925781 10.691406 -6.6875 12.203125 -6.6875 C 13.503906 -6.6875 14.457031 -6.910156 15.0625 -7.359375 C 15.664062 -7.816406 15.96875 -8.398438 15.96875 -9.109375 C 15.96875 -9.554688 15.84375 -9.945312 15.59375 -10.28125 C 15.351562 -10.613281 14.960938 -10.945312 14.421875 -11.28125 C 13.890625 -11.625 12.453125 -12.320312 10.109375 -13.375 C 7.992188 -14.332031 6.40625 -15.265625 5.34375 -16.171875 C 4.28125 -17.078125 3.492188 -18.113281 2.984375 -19.28125 C 2.472656 -20.457031 2.21875 -21.84375 2.21875 -23.4375 C 2.21875 -26.425781 3.304688 -28.757812 5.484375 -30.4375 C 7.660156 -32.113281 10.65625 -32.953125 14.46875 -32.953125 C 17.820312 -32.953125 21.25 -32.171875 24.75 -30.609375 L 22.0625 -23.84375 C 19.019531 -25.226562 16.398438 -25.921875 14.203125 -25.921875 C 13.054688 -25.921875 12.222656 -25.722656 11.703125 -25.328125 C 11.191406 -24.929688 10.9375 -24.4375 10.9375 -23.84375 C 10.9375 -23.207031 11.265625 -22.632812 11.921875 -22.125 C 12.578125 -21.625 14.363281 -20.707031 17.28125 -19.375 C 20.082031 -18.113281 22.023438 -16.757812 23.109375 -15.3125 C 24.203125 -13.875 24.75 -12.054688 24.75 -9.859375 Z M 24.75 -9.859375 "/></g></g></g><g fill="#ccd7f7" fill-opacity="1"><g transform="translate(211.843194, 197.051973)"><g><path d="M 31.34375 0 L 22.53125 0 L 22.53125 -13.234375 L 12.328125 -13.234375 L 12.328125 0 L 3.515625 0 L 3.515625 -32.484375 L 12.328125 -32.484375 L 12.328125 -20.4375 L 22.53125 -20.4375 L 22.53125 -32.484375 L 31.34375 -32.484375 Z M 31.34375 0 "/></g></g></g><g fill="#ccd7f7" fill-opacity="1"><g transform="translate(250.742713, 197.051973)"><g><path d="M 23.4375 0 L 21.84375 -6.09375 L 11.28125 -6.09375 L 9.640625 0 L 0 0 L 10.59375 -32.609375 L 22.3125 -32.609375 L 33.03125 0 Z M 20.015625 -13.28125 L 18.625 -18.625 C 18.289062 -19.800781 17.890625 -21.328125 17.421875 -23.203125 C 16.960938 -25.085938 16.65625 -26.441406 16.5 -27.265625 C 16.375 -26.503906 16.113281 -25.253906 15.71875 -23.515625 C 15.320312 -21.785156 14.453125 -18.375 13.109375 -13.28125 Z M 20.015625 -13.28125 "/></g></g></g><g fill="#00f3aa" fill-opacity="1"><g transform="translate(287.821079, 197.051973)"><g><path d="M 1.90625 -3.6875 C 1.90625 -5.050781 2.304688 -6.101562 3.109375 -6.84375 C 3.921875 -7.582031 5.097656 -7.953125 6.640625 -7.953125 C 8.109375 -7.953125 9.234375 -7.582031 10.015625 -6.84375 C 10.804688 -6.101562 11.203125 -5.050781 11.203125 -3.6875 C 11.203125 -2.351562 10.796875 -1.3125 9.984375 -0.5625 C 9.179688 0.1875 8.066406 0.5625 6.640625 0.5625 C 5.171875 0.5625 4.015625 0.191406 3.171875 -0.546875 C 2.328125 -1.296875 1.90625 -2.34375 1.90625 -3.6875 Z M 1.90625 -3.6875 "/></g></g></g></svg>